<svg xmlns="http://www.w3.org/2000/svg" xmlns:xlink="http://www.w3.org/1999/xlink" version="1.1" viewBox="-20.48 -20.48 552.96 552.96" style="width: 64px; height: 64px; transform-origin: 50% 50%; transform: scaleX(1) scaleY(1) rotate(0deg);" xml:space="preserve" preserveAspectRatio="xMidYMid meet"><g id="_x35_0_Hourglass"><g><linearGradient id="SVGID_1_" gradientUnits="userSpaceOnUse" x1="284.9663" y1="-205.8513" x2="226.5783" y2="880.1656"><stop offset="0" style="stop-color:#EAE9FE"/><stop offset="0.4236" style="stop-color:#EEEEFE"/><stop offset="0.8967" style="stop-color:#FBFBFF"/><stop offset="1" style="stop-color:#FFFFFF"/></linearGradient><path style="fill:url(#SVGID_1_);" d="M468.836,264.275c-9.502-7.393-20.977-13.763-25.396-24.961    c-6.009-15.229,3.597-31.571,9.261-46.931c17.296-46.9-4.903-102.439-44.732-132.645    c-75.982-57.623-224.302-37.425-245.028,42.219c-8.768,33.692,6.94,72.131-9.131,103.013    c-20.278,38.966-74.073,41.594-108.719,58.921C2.169,285.358-6.419,332.1,24.365,367.686    c11.304,13.068,25.769,22.07,36.136,36.348c15.001,20.659,23.415,43.504,43.486,60.545c28.263,23.996,75.517,29.946,100.538,2.586    c14.09-15.407,18.675-38.106,34.054-52.225c20.245-18.586,52.242-16.086,78.004-6.514c25.762,9.571,49.655,25.026,76.789,29.381    c42.426,6.81,87.917-18.085,105.053-57.489C515.561,340.912,502.748,290.664,468.836,264.275z"/><g><path style="fill:#27D6FD" d="M434.313,407.891v20.732c0,6.397-5.185,11.582-11.582,11.582H201.687     c-6.397,0-11.582-5.185-11.582-11.582v-20.732c0-6.397,5.185-11.582,11.582-11.582h221.044     C429.128,396.309,434.313,401.495,434.313,407.891z"/><path style="fill:#27D6FD" d="M434.313,81.086v20.732c0,6.397-5.185,11.582-11.582,11.582H201.687     c-6.397,0-11.582-5.185-11.582-11.582V81.086c0-6.397,5.185-11.582,11.582-11.582h221.044     C429.128,69.504,434.313,74.689,434.313,81.086z"/><path style="fill:#EDEDED;" d="M368.034,241.011l-26.264,13.87l26.264,13.819c27.689,14.609,44.987,43.299,44.987,74.627v52.984     H211.396v-52.984c0-31.327,17.352-60.018,45.04-74.627l26.264-13.819l-26.264-13.87c-27.689-14.609-45.04-43.299-45.04-74.627     V113.4h201.625v52.984C413.021,197.711,395.67,226.402,368.034,241.011z"/><path style="fill:#FDFF00" d="M389.838,343.306v24.032c0,3.198-2.593,5.791-5.791,5.791H240.371     c-3.198,0-5.791-2.593-5.791-5.791v-24.032c0-8.514,18.763-20.616,39.437-28.842c18.241-7.239,30.519-24.493,30.519-44.069     v-1.796c0-17.441-9.647-33.452-25.067-41.602l-12.227-6.462c-8.514-4.519-15.521-10.886-20.964-18.357H378.14     c-5.385,7.471-12.45,13.839-20.905,18.357l-12.22,6.427c-15.463,8.166-25.134,24.208-25.134,41.697v1.852     c0,19.341,11.582,37.065,29.593,44.185C370.206,322.922,389.838,334.851,389.838,343.306z"/><circle style="fill:#F9BB40;" cx="166.439" cy="353.742" r="88.753"/><circle style="fill:#D8901D;" cx="166.439" cy="353.742" r="62.654"/><path style="fill:#332E8E;" d="M422.73,65.755H201.687c-8.455,0-15.332,6.877-15.332,15.332v20.732     c0,8.455,6.877,15.332,15.332,15.332h5.959v49.233c0,32.769,18.025,62.634,47.039,77.942l19.973,10.547l-19.973,10.51     c-9.924,5.236-18.529,12.2-25.593,20.381c-16.492-15.212-38.502-24.526-62.654-24.526c-51.006,0-92.502,41.497-92.502,92.502     c0,51.008,41.497,92.505,92.502,92.505c9.68,0,19.014-1.501,27.79-4.272c2.208,1.248,4.743,1.982,7.459,1.982H422.73     c8.455,0,15.334-6.877,15.334-15.332v-20.732c0-8.455-6.88-15.332-15.334-15.332h-5.957v-49.233     c0-32.783-18.005-62.651-46.992-77.944l-19.968-10.508l19.973-10.547h0.002c28.982-15.322,46.985-45.188,46.985-77.942v-49.233     h5.957c8.455,0,15.334-6.877,15.334-15.332V81.087C438.064,72.632,431.184,65.755,422.73,65.755z M81.436,353.74     c0-46.87,38.132-85.002,85.002-85.002s85.002,38.132,85.002,85.002c0,46.873-38.132,85.005-85.002,85.005     S81.436,400.613,81.436,353.74z M281.221,223.682c-9.027-5.243-17.502-7.685-26.978-17.754h115.945     c-9.62,10.2-18.476,12.804-26.924,17.72c-38.981,20.58-34.75,78.888,4.827,94.534c23.472,9.314,37.998,20.293,37.998,25.125     v24.033c0,1.125-0.916,2.041-2.041,2.041H257.592c0.87-5.088,1.349-10.308,1.349-15.64c0-9.039-1.326-17.769-3.755-26.032     c5.572-3.275,12.365-6.635,20.215-9.759C317.393,301.287,319.091,243.697,281.221,223.682z M430.564,407.891v20.732     c0,4.319-3.516,7.832-7.834,7.832H207.782c16.161-8.112,29.623-20.815,38.676-36.396h166.564h9.707     C427.049,400.059,430.564,403.572,430.564,407.891z M409.273,166.385c0,29.968-16.472,57.292-42.988,71.311l-26.265,13.87     c-1.23,0.649-2,1.926-2,3.318s0.771,2.668,2.004,3.315l26.26,13.816c26.516,13.992,42.988,41.316,42.988,71.311v49.233H250.371     c2.324-5.005,4.232-10.24,5.638-15.679h128.038c5.261,0,9.541-4.28,9.541-9.541v-24.033c0-14.045-32.708-28.118-42.734-32.097     c-33.797-13.362-37.271-63.406-4.094-80.928c6.865-4.277,22.042-8.742,34.421-25.911c0.823-1.14,0.938-2.649,0.295-3.901     c-0.64-1.252-1.929-2.041-3.337-2.041H246.277c-1.411,0-2.703,0.791-3.342,2.051c-0.64,1.257-0.52,2.769,0.313,3.909     c12.51,17.169,26.417,20.93,34.468,25.925c32.273,17.058,30.894,66.392-5.085,80.667c-3.055,1.216-11.437,4.706-19.901,9.495     c-4.238-10.956-10.493-20.911-18.325-29.4c6.533-7.662,14.532-14.178,23.778-19.058l26.265-13.818     c1.233-0.647,2.004-1.924,2.004-3.315s-0.769-2.668-2-3.318l-26.265-13.87c-26.548-14.009-43.04-41.333-43.04-71.311v-49.233     h194.126V166.385z M430.564,101.819c0,4.319-3.516,7.832-7.834,7.832h-9.707H211.397h-9.709c-4.319,0-7.832-3.513-7.832-7.832     V81.087c0-4.319,3.513-7.832,7.832-7.832H422.73c4.319,0,7.834,3.513,7.834,7.832V101.819z"/><path style="fill:#332E8E;" d="M166.438,287.339c-36.616,0-66.404,29.788-66.404,66.401c0,36.616,29.788,66.404,66.404,66.404     s66.404-29.788,66.404-66.404C232.842,317.127,203.054,287.339,166.438,287.339z M166.438,412.644     c-32.48,0-58.904-26.423-58.904-58.904c0-32.478,26.423-58.901,58.904-58.901s58.904,26.423,58.904,58.901     C225.342,386.221,198.919,412.644,166.438,412.644z"/><path style="fill:#332E8E;" d="M166.967,323.837c0.005,0,0.01,0.002,0.015,0.002c0.016,0,0.03-0.004,0.045-0.005     c0.002,0,0.004,0,0.006,0c7.559,0,13.706,6.199,13.706,13.818c0,2.07,1.68,3.75,3.75,3.75s3.75-1.68,3.75-3.75     c0-10.485-7.575-19.205-17.507-20.972v-4.533c0-2.07-1.68-3.75-3.75-3.75s-3.75,1.68-3.75,3.75v4.546     c-9.945,1.8-17.517,10.504-17.517,20.959c0,11.524,9.294,20.912,20.817,21.181c0.15,0.018,0.296,0.045,0.45,0.045     c0.049,0,0.096-0.013,0.145-0.015c7.515,0.051,13.613,6.228,13.613,13.816c0,7.556-6.147,13.704-13.706,13.704     c-0.002,0-0.004,0-0.005,0c-0.016,0-0.03-0.005-0.046-0.005c-0.005,0-0.01,0.002-0.015,0.002     c-7.589-0.036-13.752-6.166-13.752-13.7c0-2.07-1.68-3.75-3.75-3.75s-3.75,1.68-3.75,3.75c0,10.4,7.572,19.056,17.517,20.847     v3.299c0,2.07,1.68,3.75,3.75,3.75s3.75-1.68,3.75-3.75v-3.286c9.932-1.758,17.507-10.431,17.507-20.859     c0-11.755-9.514-21.321-21.206-21.321c-0.002,0-0.004,0-0.005,0c-0.016,0-0.03-0.005-0.046-0.005     c-0.005,0-0.01,0.002-0.015,0.002c-7.589-0.036-13.752-6.166-13.752-13.703C153.216,330.055,159.379,323.873,166.967,323.837z"/></g></g></g><g id="Layer_1"/></svg>